G04*
G04 #@! TF.GenerationSoftware,Altium Limited,Altium Designer,20.0.12 (288)*
G04*
G04 Layer_Color=65535*
%FSLAX44Y44*%
%MOMM*%
G71*
G01*
G75*
%ADD10C,0.2540*%
%ADD11C,0.1000*%
%ADD12C,0.2000*%
%ADD13C,0.1500*%
%ADD14C,0.3500*%
D10*
X165136Y177910D02*
G03*
X165136Y177910I-806J0D01*
G01*
X237590Y296700D02*
G03*
X237590Y296700I-1140J0D01*
G01*
X448479Y371430D02*
G03*
X448479Y371430I-559J0D01*
G01*
X547897Y136070D02*
G03*
X547897Y136070I-2687J0D01*
G01*
X635154Y165200D02*
G03*
X635154Y165200I-1204J0D01*
G01*
X615997Y279300D02*
G03*
X615997Y279300I-707J0D01*
G01*
X389520Y67000D02*
Y404350D01*
X34820Y67000D02*
X389520Y67000D01*
X34820Y67000D02*
Y404350D01*
X389520D01*
X43354Y336966D02*
Y349716D01*
X54354D01*
X80120Y398850D02*
X80370D01*
X43604Y349716D02*
X59604Y333716D01*
X65990Y455460D02*
Y460538D01*
Y457999D01*
X50755D01*
X53294Y455460D01*
X341637Y424338D02*
X336558D01*
X334019Y421798D01*
Y411642D01*
X336558Y409103D01*
X341637D01*
X344176Y411642D01*
Y421798D01*
X341637Y424338D01*
X349254D02*
Y409103D01*
X359411D01*
X374646Y424338D02*
X364489D01*
Y409103D01*
X374646D01*
X364489Y416720D02*
X369567D01*
X379724Y424338D02*
Y409103D01*
X387342D01*
X389881Y411642D01*
Y421798D01*
X387342Y424338D01*
X379724D01*
X259084Y320197D02*
Y307502D01*
X261623Y304963D01*
X266702D01*
X269241Y307502D01*
Y320197D01*
X284476D02*
X279398Y317658D01*
X274319Y312580D01*
Y307502D01*
X276858Y304963D01*
X281937D01*
X284476Y307502D01*
Y310041D01*
X281937Y312580D01*
X274319D01*
X172724Y179228D02*
Y166532D01*
X175263Y163993D01*
X180342D01*
X182881Y166532D01*
Y179228D01*
X198116D02*
X187959D01*
Y171610D01*
X193037Y174149D01*
X195577D01*
X198116Y171610D01*
Y166532D01*
X195577Y163993D01*
X190498D01*
X187959Y166532D01*
X461014Y387508D02*
Y374812D01*
X463553Y372272D01*
X468632D01*
X471171Y374812D01*
Y387508D01*
X483867Y372272D02*
Y387508D01*
X476249Y379890D01*
X486406D01*
X500384Y231297D02*
Y218602D01*
X502923Y216063D01*
X508002D01*
X510541Y218602D01*
Y231297D01*
X515619Y228758D02*
X518158Y231297D01*
X523237D01*
X525776Y228758D01*
Y226219D01*
X523237Y223680D01*
X520698D01*
X523237D01*
X525776Y221141D01*
Y218602D01*
X523237Y216063D01*
X518158D01*
X515619Y218602D01*
X593094Y299718D02*
Y287022D01*
X595633Y284482D01*
X600712D01*
X603251Y287022D01*
Y299718D01*
X618486Y284482D02*
X608329D01*
X618486Y294639D01*
Y297178D01*
X615947Y299718D01*
X610868D01*
X608329Y297178D01*
X599093Y234618D02*
Y221922D01*
X601632Y219382D01*
X606711D01*
X609250Y221922D01*
Y234618D01*
X614328Y219382D02*
X619407D01*
X616867D01*
Y234618D01*
X614328Y232078D01*
X297187Y132242D02*
Y147478D01*
X304804D01*
X307343Y144938D01*
Y139860D01*
X304804Y137321D01*
X297187D01*
X302265D02*
X307343Y132242D01*
X322578D02*
X312422D01*
X322578Y142399D01*
Y144938D01*
X320039Y147478D01*
X314961D01*
X312422Y144938D01*
X327657D02*
X330196Y147478D01*
X335274D01*
X337813Y144938D01*
Y134782D01*
X335274Y132242D01*
X330196D01*
X327657Y134782D01*
Y144938D01*
X297186Y153833D02*
Y169067D01*
X304804D01*
X307343Y166528D01*
Y161450D01*
X304804Y158911D01*
X297186D01*
X302264D02*
X307343Y153833D01*
X312421D02*
X317500D01*
X314960D01*
Y169067D01*
X312421Y166528D01*
X325117Y156372D02*
X327656Y153833D01*
X332735D01*
X335274Y156372D01*
Y166528D01*
X332735Y169067D01*
X327656D01*
X325117Y166528D01*
Y163989D01*
X327656Y161450D01*
X335274D01*
X237496Y207173D02*
Y222407D01*
X245114D01*
X247653Y219868D01*
Y214790D01*
X245114Y212251D01*
X237496D01*
X242575D02*
X247653Y207173D01*
X252731D02*
X257810D01*
X255270D01*
Y222407D01*
X252731Y219868D01*
X265427D02*
X267966Y222407D01*
X273045D01*
X275584Y219868D01*
Y217329D01*
X273045Y214790D01*
X275584Y212251D01*
Y209712D01*
X273045Y207173D01*
X267966D01*
X265427Y209712D01*
Y212251D01*
X267966Y214790D01*
X265427Y217329D01*
Y219868D01*
X267966Y214790D02*
X273045D01*
X340366Y188123D02*
Y203358D01*
X347984D01*
X350523Y200818D01*
Y195740D01*
X347984Y193201D01*
X340366D01*
X345444D02*
X350523Y188123D01*
X355601D02*
X360680D01*
X358140D01*
Y203358D01*
X355601Y200818D01*
X368297Y203358D02*
X378454D01*
Y200818D01*
X368297Y190662D01*
Y188123D01*
X340366Y167803D02*
Y183037D01*
X347984D01*
X350523Y180498D01*
Y175420D01*
X347984Y172881D01*
X340366D01*
X345444D02*
X350523Y167803D01*
X355601D02*
X360680D01*
X358140D01*
Y183037D01*
X355601Y180498D01*
X378454Y183037D02*
X373376Y180498D01*
X368297Y175420D01*
Y170342D01*
X370836Y167803D01*
X375915D01*
X378454Y170342D01*
Y172881D01*
X375915Y175420D01*
X368297D01*
X156216Y128433D02*
Y143667D01*
X163834D01*
X166373Y141128D01*
Y136050D01*
X163834Y133511D01*
X156216D01*
X161294D02*
X166373Y128433D01*
X171451D02*
X176530D01*
X173990D01*
Y143667D01*
X171451Y141128D01*
X194304Y143667D02*
X184147D01*
Y136050D01*
X189226Y138589D01*
X191765D01*
X194304Y136050D01*
Y130972D01*
X191765Y128433D01*
X186686D01*
X184147Y130972D01*
X187966Y313853D02*
Y329087D01*
X195584D01*
X198123Y326548D01*
Y321470D01*
X195584Y318931D01*
X187966D01*
X193044D02*
X198123Y313853D01*
X203201D02*
X208280D01*
X205740D01*
Y329087D01*
X203201Y326548D01*
X223515Y313853D02*
Y329087D01*
X215897Y321470D01*
X226054D01*
X189236Y232572D02*
Y247808D01*
X196854D01*
X199393Y245268D01*
Y240190D01*
X196854Y237651D01*
X189236D01*
X194314D02*
X199393Y232572D01*
X204471D02*
X209550D01*
X207010D01*
Y247808D01*
X204471Y245268D01*
X217167D02*
X219706Y247808D01*
X224785D01*
X227324Y245268D01*
Y242729D01*
X224785Y240190D01*
X222246D01*
X224785D01*
X227324Y237651D01*
Y235112D01*
X224785Y232572D01*
X219706D01*
X217167Y235112D01*
X546106Y73983D02*
Y89218D01*
X553724D01*
X556263Y86678D01*
Y81600D01*
X553724Y79061D01*
X546106D01*
X551185D02*
X556263Y73983D01*
X561341D02*
X566420D01*
X563880D01*
Y89218D01*
X561341Y86678D01*
X584194Y73983D02*
X574037D01*
X584194Y84139D01*
Y86678D01*
X581655Y89218D01*
X576576D01*
X574037Y86678D01*
X415995Y396242D02*
Y411478D01*
X423613D01*
X426152Y408938D01*
Y403860D01*
X423613Y401321D01*
X415995D01*
X421074D02*
X426152Y396242D01*
X431230D02*
X436309D01*
X433770D01*
Y411478D01*
X431230Y408938D01*
X443926Y396242D02*
X449005D01*
X446465D01*
Y411478D01*
X443926Y408938D01*
X427996Y73983D02*
Y89218D01*
X435614D01*
X438153Y86678D01*
Y81600D01*
X435614Y79061D01*
X427996D01*
X433074D02*
X438153Y73983D01*
X443231D02*
X448310D01*
X445770D01*
Y89218D01*
X443231Y86678D01*
X455927D02*
X458466Y89218D01*
X463545D01*
X466084Y86678D01*
Y76522D01*
X463545Y73983D01*
X458466D01*
X455927Y76522D01*
Y86678D01*
X421644Y298612D02*
Y313848D01*
X429262D01*
X431801Y311308D01*
Y306230D01*
X429262Y303691D01*
X421644D01*
X426722D02*
X431801Y298612D01*
X436879Y301152D02*
X439418Y298612D01*
X444497D01*
X447036Y301152D01*
Y311308D01*
X444497Y313848D01*
X439418D01*
X436879Y311308D01*
Y308769D01*
X439418Y306230D01*
X447036D01*
X421644Y203363D02*
Y218598D01*
X429262D01*
X431801Y216058D01*
Y210980D01*
X429262Y208441D01*
X421644D01*
X426722D02*
X431801Y203363D01*
X436879Y216058D02*
X439418Y218598D01*
X444497D01*
X447036Y216058D01*
Y213519D01*
X444497Y210980D01*
X447036Y208441D01*
Y205902D01*
X444497Y203363D01*
X439418D01*
X436879Y205902D01*
Y208441D01*
X439418Y210980D01*
X436879Y213519D01*
Y216058D01*
X439418Y210980D02*
X444497D01*
X421644Y184312D02*
Y199548D01*
X429262D01*
X431801Y197008D01*
Y191930D01*
X429262Y189391D01*
X421644D01*
X426722D02*
X431801Y184312D01*
X436879Y199548D02*
X447036D01*
Y197008D01*
X436879Y186852D01*
Y184312D01*
X466094Y297342D02*
Y312577D01*
X473712D01*
X476251Y310038D01*
Y304960D01*
X473712Y302421D01*
X466094D01*
X471172D02*
X476251Y297342D01*
X491486Y312577D02*
X486408Y310038D01*
X481329Y304960D01*
Y299882D01*
X483868Y297342D01*
X488947D01*
X491486Y299882D01*
Y302421D01*
X488947Y304960D01*
X481329D01*
X440694Y94143D02*
Y109377D01*
X448312D01*
X450851Y106838D01*
Y101760D01*
X448312Y99221D01*
X440694D01*
X445773D02*
X450851Y94143D01*
X466086Y109377D02*
X455929D01*
Y101760D01*
X461007Y104299D01*
X463547D01*
X466086Y101760D01*
Y96682D01*
X463547Y94143D01*
X458468D01*
X455929Y96682D01*
X693424Y142402D02*
Y157638D01*
X701042D01*
X703581Y155098D01*
Y150020D01*
X701042Y147481D01*
X693424D01*
X698503D02*
X703581Y142402D01*
X716277D02*
Y157638D01*
X708659Y150020D01*
X718816D01*
X546804Y249132D02*
Y264368D01*
X554422D01*
X556961Y261828D01*
Y256750D01*
X554422Y254211D01*
X546804D01*
X551883D02*
X556961Y249132D01*
X562039Y261828D02*
X564578Y264368D01*
X569657D01*
X572196Y261828D01*
Y259289D01*
X569657Y256750D01*
X567118D01*
X569657D01*
X572196Y254211D01*
Y251672D01*
X569657Y249132D01*
X564578D01*
X562039Y251672D01*
X172724Y439422D02*
Y454658D01*
X180342D01*
X182881Y452118D01*
Y447040D01*
X180342Y444501D01*
X172724D01*
X177803D02*
X182881Y439422D01*
X198116D02*
X187959D01*
X198116Y449579D01*
Y452118D01*
X195577Y454658D01*
X190498D01*
X187959Y452118D01*
X132083Y439422D02*
Y454658D01*
X139701D01*
X142240Y452118D01*
Y447040D01*
X139701Y444501D01*
X132083D01*
X137162D02*
X142240Y439422D01*
X147318D02*
X152397D01*
X149858D01*
Y454658D01*
X147318Y452118D01*
X190508Y33182D02*
Y48418D01*
X195586Y43339D01*
X200665Y48418D01*
Y33182D01*
X205743Y48418D02*
X210821D01*
X208282D01*
Y33182D01*
X205743D01*
X210821D01*
X228596Y45878D02*
X226056Y48418D01*
X220978D01*
X218439Y45878D01*
Y35722D01*
X220978Y33182D01*
X226056D01*
X228596Y35722D01*
X233674Y33182D02*
X238752D01*
X236213D01*
Y48418D01*
X233674Y45878D01*
X464823Y242728D02*
Y227493D01*
X474980D01*
X480058D02*
X485137D01*
X482598D01*
Y242728D01*
X480058Y240188D01*
X73663Y49688D02*
X68584D01*
X71123D01*
Y36992D01*
X68584Y34453D01*
X66045D01*
X63506Y36992D01*
X78741Y34453D02*
Y49688D01*
X86358D01*
X88898Y47148D01*
Y42070D01*
X86358Y39531D01*
X78741D01*
X93976Y34453D02*
X99054D01*
X96515D01*
Y49688D01*
X93976Y47148D01*
X48514Y541175D02*
Y525940D01*
Y533558D01*
X58671D01*
Y541175D01*
Y525940D01*
X63749Y541175D02*
Y525940D01*
X71367D01*
X73906Y528479D01*
Y538636D01*
X71367Y541175D01*
X63749D01*
X78984Y525940D02*
Y541175D01*
X86602D01*
X89141Y538636D01*
Y533558D01*
X86602Y531018D01*
X78984D01*
X84063D02*
X89141Y525940D01*
X94219D02*
X99298D01*
X96758D01*
Y541175D01*
X94219Y538636D01*
X604523Y358457D02*
X594367D01*
Y350840D01*
X599445D01*
X594367D01*
Y343223D01*
X609602Y358457D02*
Y343223D01*
X617219D01*
X619758Y345762D01*
Y348301D01*
X617219Y350840D01*
X609602D01*
X617219D01*
X619758Y353379D01*
Y355918D01*
X617219Y358457D01*
X609602D01*
X634993Y343223D02*
X624837D01*
X634993Y353379D01*
Y355918D01*
X632454Y358457D01*
X627376D01*
X624837Y355918D01*
X527882Y381618D02*
X517726D01*
Y374000D01*
X522804D01*
X517726D01*
Y366382D01*
X532961Y381618D02*
Y366382D01*
X540578D01*
X543118Y368922D01*
Y371461D01*
X540578Y374000D01*
X532961D01*
X540578D01*
X543118Y376539D01*
Y379078D01*
X540578Y381618D01*
X532961D01*
X548196Y366382D02*
X553274D01*
X550735D01*
Y381618D01*
X548196Y379078D01*
X81283Y456087D02*
Y440853D01*
X88901D01*
X91440Y443392D01*
Y453548D01*
X88901Y456087D01*
X81283D01*
X96518Y440853D02*
X101597D01*
X99058D01*
Y456087D01*
X96518Y453548D01*
X137163Y274478D02*
X134624Y277017D01*
X129545D01*
X127006Y274478D01*
Y264322D01*
X129545Y261782D01*
X134624D01*
X137163Y264322D01*
X142241Y261782D02*
X147320D01*
X144780D01*
Y277017D01*
X142241Y274478D01*
X165094Y277017D02*
X154937D01*
Y269400D01*
X160016Y271939D01*
X162555D01*
X165094Y269400D01*
Y264322D01*
X162555Y261782D01*
X157476D01*
X154937Y264322D01*
X83823Y274478D02*
X81284Y277017D01*
X76205D01*
X73666Y274478D01*
Y264322D01*
X76205Y261782D01*
X81284D01*
X83823Y264322D01*
X88901Y261782D02*
X93980D01*
X91440D01*
Y277017D01*
X88901Y274478D01*
X109215Y261782D02*
Y277017D01*
X101597Y269400D01*
X111754D01*
X257813Y155098D02*
X255274Y157638D01*
X250195D01*
X247656Y155098D01*
Y144942D01*
X250195Y142402D01*
X255274D01*
X257813Y144942D01*
X262891Y142402D02*
X267970D01*
X265430D01*
Y157638D01*
X262891Y155098D01*
X275587D02*
X278126Y157638D01*
X283205D01*
X285744Y155098D01*
Y152559D01*
X283205Y150020D01*
X280665D01*
X283205D01*
X285744Y147481D01*
Y144942D01*
X283205Y142402D01*
X278126D01*
X275587Y144942D01*
X358143Y348138D02*
X355604Y350677D01*
X350525D01*
X347986Y348138D01*
Y337982D01*
X350525Y335443D01*
X355604D01*
X358143Y337982D01*
X363221Y335443D02*
X368300D01*
X365760D01*
Y350677D01*
X363221Y348138D01*
X386074Y335443D02*
X375917D01*
X386074Y345599D01*
Y348138D01*
X383535Y350677D01*
X378456D01*
X375917Y348138D01*
X69852Y170338D02*
X67313Y172878D01*
X62235D01*
X59695Y170338D01*
Y160182D01*
X62235Y157642D01*
X67313D01*
X69852Y160182D01*
X74930Y157642D02*
X80009D01*
X77470D01*
Y172878D01*
X74930Y170338D01*
X87626Y157642D02*
X92705D01*
X90166D01*
Y172878D01*
X87626Y170338D01*
X68583Y150018D02*
X66044Y152557D01*
X60965D01*
X58426Y150018D01*
Y139862D01*
X60965Y137323D01*
X66044D01*
X68583Y139862D01*
X73661Y137323D02*
X78740D01*
X76200D01*
Y152557D01*
X73661Y150018D01*
X86357D02*
X88896Y152557D01*
X93975D01*
X96514Y150018D01*
Y139862D01*
X93975Y137323D01*
X88896D01*
X86357Y139862D01*
Y150018D01*
X358141Y322738D02*
X355602Y325277D01*
X350523D01*
X347984Y322738D01*
Y312582D01*
X350523Y310042D01*
X355602D01*
X358141Y312582D01*
X363219D02*
X365758Y310042D01*
X370837D01*
X373376Y312582D01*
Y322738D01*
X370837Y325277D01*
X365758D01*
X363219Y322738D01*
Y320199D01*
X365758Y317660D01*
X373376D01*
X566421Y310038D02*
X563882Y312577D01*
X558803D01*
X556264Y310038D01*
Y299882D01*
X558803Y297342D01*
X563882D01*
X566421Y299882D01*
X571499Y310038D02*
X574038Y312577D01*
X579117D01*
X581656Y310038D01*
Y307499D01*
X579117Y304960D01*
X581656Y302421D01*
Y299882D01*
X579117Y297342D01*
X574038D01*
X571499Y299882D01*
Y302421D01*
X574038Y304960D01*
X571499Y307499D01*
Y310038D01*
X574038Y304960D02*
X579117D01*
X527711Y401078D02*
X525172Y403618D01*
X520093D01*
X517554Y401078D01*
Y390922D01*
X520093Y388382D01*
X525172D01*
X527711Y390922D01*
X532789Y403618D02*
X542946D01*
Y401078D01*
X532789Y390922D01*
Y388382D01*
X702311Y277018D02*
X699772Y279557D01*
X694693D01*
X692154Y277018D01*
Y266862D01*
X694693Y264322D01*
X699772D01*
X702311Y266862D01*
X717546Y279557D02*
X712467Y277018D01*
X707389Y271940D01*
Y266862D01*
X709928Y264322D01*
X715007D01*
X717546Y266862D01*
Y269401D01*
X715007Y271940D01*
X707389D01*
X702311Y297178D02*
X699772Y299718D01*
X694693D01*
X692154Y297178D01*
Y287022D01*
X694693Y284482D01*
X699772D01*
X702311Y287022D01*
X717546Y299718D02*
X707389D01*
Y292100D01*
X712467Y294639D01*
X715007D01*
X717546Y292100D01*
Y287022D01*
X715007Y284482D01*
X709928D01*
X707389Y287022D01*
X555711Y169578D02*
X553172Y172118D01*
X548093D01*
X545554Y169578D01*
Y159422D01*
X548093Y156882D01*
X553172D01*
X555711Y159422D01*
X568407Y156882D02*
Y172118D01*
X560789Y164500D01*
X570946D01*
X555711Y188078D02*
X553172Y190618D01*
X548093D01*
X545554Y188078D01*
Y177922D01*
X548093Y175382D01*
X553172D01*
X555711Y177922D01*
X560789Y188078D02*
X563328Y190618D01*
X568407D01*
X570946Y188078D01*
Y185539D01*
X568407Y183000D01*
X565868D01*
X568407D01*
X570946Y180461D01*
Y177922D01*
X568407Y175382D01*
X563328D01*
X560789Y177922D01*
X615951Y141128D02*
X613412Y143667D01*
X608333D01*
X605794Y141128D01*
Y130972D01*
X608333Y128433D01*
X613412D01*
X615951Y130972D01*
X631186Y128433D02*
X621029D01*
X631186Y138589D01*
Y141128D01*
X628647Y143667D01*
X623568D01*
X621029Y141128D01*
X617220Y115728D02*
X614681Y118267D01*
X609603D01*
X607063Y115728D01*
Y105572D01*
X609603Y103033D01*
X614681D01*
X617220Y105572D01*
X622298Y103033D02*
X627377D01*
X624838D01*
Y118267D01*
X622298Y115728D01*
D11*
X46530Y467920D02*
X431130D01*
Y517920D01*
X46530D02*
X431130D01*
X46530Y467920D02*
Y517920D01*
X593290Y256050D02*
Y257050D01*
Y262550D02*
Y263550D01*
Y269050D02*
Y270050D01*
X618290Y256050D02*
Y257050D01*
Y262550D02*
Y263550D01*
Y269050D02*
Y270050D01*
X593290Y250550D02*
X618290D01*
X593290Y275550D02*
X618290D01*
D12*
X119830Y414070D02*
Y416170D01*
X80830Y414070D02*
X119830D01*
X80830Y429820D02*
Y432070D01*
X119830D01*
Y429820D02*
Y432070D01*
X80830Y414070D02*
Y416170D01*
X119830Y432070D02*
X126330D01*
Y414070D02*
Y432070D01*
X121205Y414070D02*
X126330D01*
X119830D02*
X121205D01*
X308610Y332900D02*
Y353220D01*
X344170D01*
Y332900D02*
Y353220D01*
X308610Y332900D02*
X344170D01*
X308610Y307500D02*
Y327820D01*
X344170D01*
Y307500D02*
Y327820D01*
X308610Y307500D02*
X344170D01*
X265430Y162720D02*
X285750D01*
X265430D02*
Y198280D01*
X285750D01*
Y162720D02*
Y198280D01*
X256540Y162500D02*
Y198500D01*
X236220D02*
X256540D01*
X236220Y162500D02*
Y198500D01*
Y162500D02*
X256540D01*
X339090Y251400D02*
Y287400D01*
Y251400D02*
X359410D01*
Y287400D01*
X339090D02*
X359410D01*
Y206950D02*
Y242950D01*
X339090D02*
X359410D01*
X339090Y206950D02*
Y242950D01*
Y206950D02*
X359410D01*
X295690Y200820D02*
X331690D01*
Y221140D01*
X295690D02*
X331690D01*
X295690Y200820D02*
Y221140D01*
Y194470D02*
X331690D01*
X295690Y174150D02*
Y194470D01*
Y174150D02*
X331690D01*
Y194470D01*
X191550Y227490D02*
X227550D01*
X191550Y207170D02*
Y227490D01*
Y207170D02*
X227550D01*
Y227490D01*
X96520Y176730D02*
X116840D01*
X96520D02*
Y212290D01*
X116840D01*
Y176730D02*
Y212290D01*
X72390Y176690D02*
X92710D01*
X72390D02*
Y212250D01*
X92710D01*
Y176690D02*
Y212250D01*
X115350Y146210D02*
X151350D01*
X115350Y125890D02*
Y146210D01*
Y125890D02*
X151350D01*
Y146210D01*
X161410Y237650D02*
Y257970D01*
X125850Y237650D02*
X161410D01*
X125850D02*
Y257970D01*
X161410D01*
X73660Y237650D02*
Y257970D01*
X109220D01*
Y237650D02*
Y257970D01*
X73660Y237650D02*
X109220D01*
X215900Y270500D02*
Y306500D01*
X195580D02*
X215900D01*
X195580Y270500D02*
Y306500D01*
Y270500D02*
X215900D01*
X241950Y293300D02*
Y294800D01*
X304150D01*
Y293500D02*
Y294800D01*
X304050Y243700D02*
Y245200D01*
X241850Y243700D02*
X304050D01*
X241850D02*
Y245000D01*
X241950Y280800D02*
Y283400D01*
X241850Y268100D02*
Y270800D01*
X241950Y255300D02*
Y257800D01*
X304050Y255500D02*
Y258200D01*
Y268000D02*
Y270900D01*
Y281000D02*
Y283500D01*
X421420Y223680D02*
X457420D01*
Y244000D01*
X421420D02*
X457420D01*
X421420Y223680D02*
Y244000D01*
Y247810D02*
X457420D01*
Y268130D01*
X421420D02*
X457420D01*
X421420Y247810D02*
Y268130D01*
Y273210D02*
X457420D01*
Y293530D01*
X421420D02*
X457420D01*
X421420Y273210D02*
Y293530D01*
X500380Y247810D02*
Y268130D01*
X464820Y247810D02*
X500380D01*
X464820D02*
Y268130D01*
X500380D01*
X464600Y273210D02*
X500600D01*
Y293530D01*
X464600D02*
X500600D01*
X464600Y273210D02*
Y293530D01*
X551180Y294800D02*
Y315120D01*
X515620Y294800D02*
X551180D01*
X515620D02*
Y315120D01*
X551180D01*
X515620Y317660D02*
Y337980D01*
X551180D01*
Y317660D02*
Y337980D01*
X515620Y317660D02*
X551180D01*
Y340520D02*
Y360840D01*
X515620Y340520D02*
X551180D01*
X515620D02*
Y360840D01*
X551180D01*
X434910Y355250D02*
Y391250D01*
X414590D02*
X434910D01*
X414590Y355250D02*
Y391250D01*
Y355250D02*
X434910D01*
X541020Y247590D02*
Y283590D01*
X520700D02*
X541020D01*
X520700Y247590D02*
Y283590D01*
Y247590D02*
X541020D01*
X568960Y322900D02*
X589280D01*
X568960D02*
Y358460D01*
X589280D01*
Y322900D02*
Y358460D01*
X456170Y334680D02*
X486170D01*
X456170Y366680D02*
X486170D01*
X530310Y132970D02*
X538110D01*
Y151177D01*
X504310Y133070D02*
X519310D01*
X485810D02*
X493510D01*
X485810D02*
Y151000D01*
Y205370D02*
X493610D01*
X485810Y187070D02*
Y205370D01*
X504210D02*
X519210D01*
X529510D02*
X538110D01*
Y186970D02*
Y205370D01*
Y174270D02*
Y176370D01*
Y161870D02*
Y163970D01*
X485810Y161770D02*
Y163870D01*
Y174120D02*
Y176220D01*
X518160Y73600D02*
Y109600D01*
Y73600D02*
X538480D01*
Y109600D01*
X518160D02*
X538480D01*
X495300Y73600D02*
Y109600D01*
Y73600D02*
X515620D01*
Y109600D01*
X495300D02*
X515620D01*
X492760Y73600D02*
Y109600D01*
X472440D02*
X492760D01*
X472440Y73600D02*
Y109600D01*
Y73600D02*
X492760D01*
X562610Y125890D02*
Y146210D01*
X598170D01*
Y125890D02*
Y146210D01*
X562610Y125890D02*
X598170D01*
X562770Y101760D02*
Y122080D01*
X598330D01*
Y101760D02*
Y122080D01*
X562770Y101760D02*
X598330D01*
X587250Y170700D02*
Y171200D01*
Y169200D02*
Y170950D01*
Y169200D02*
X605750D01*
X614950D02*
X629250D01*
Y171200D01*
Y208600D02*
Y210500D01*
X620450D02*
X629250D01*
X587250D02*
X603550D01*
X587250Y208600D02*
Y210500D01*
X640080Y299880D02*
X660400D01*
Y264320D02*
Y299880D01*
X640080Y264320D02*
X660400D01*
X640080D02*
Y299880D01*
X662940D02*
X683260D01*
Y264320D02*
Y299880D01*
X662940Y264320D02*
X683260D01*
X662940D02*
Y299880D01*
X646210Y139860D02*
X682210D01*
Y160180D01*
X646210D02*
X682210D01*
X646210Y139860D02*
Y160180D01*
X540720Y217840D02*
Y238160D01*
X576280D01*
Y217840D02*
Y238160D01*
X540720Y217840D02*
X576280D01*
X576530Y194840D02*
Y215160D01*
X540970Y194840D02*
X576530D01*
X540970D02*
Y215160D01*
X576530D01*
X171070Y414020D02*
X207070D01*
Y434340D01*
X171070D02*
X207070D01*
X171070Y414020D02*
Y434340D01*
X130590D02*
X166590D01*
X130590Y414020D02*
Y434340D01*
Y414020D02*
X166590D01*
Y434340D01*
D13*
X166130Y182010D02*
Y185810D01*
X162130Y182010D02*
X166130D01*
X136130Y212010D02*
X139930D01*
X162130D02*
X166130D01*
Y208110D02*
Y212010D01*
X136130Y182010D02*
X139930D01*
X136130D02*
Y185810D01*
Y208110D02*
Y212010D01*
X291490Y20600D02*
X294990D01*
X287990Y20650D02*
X288040Y20600D01*
X291490D01*
Y17150D02*
Y24050D01*
X251490Y27400D02*
Y55300D01*
Y27400D02*
X296990D01*
Y55300D01*
X251490D02*
X296990D01*
X151790Y21870D02*
X155290D01*
X148290Y21920D02*
X148340Y21870D01*
X151790D01*
Y18420D02*
Y25320D01*
X111790Y28670D02*
Y56570D01*
Y28670D02*
X157290D01*
Y56570D01*
X111790D02*
X157290D01*
D14*
X24130Y387510D02*
X29128D01*
X26629D01*
Y402505D01*
X24130Y400006D01*
M02*
