G04*
G04 #@! TF.GenerationSoftware,Altium Limited,Altium Designer,20.0.12 (288)*
G04*
G04 Layer_Color=8421504*
%FSLAX44Y44*%
%MOMM*%
G71*
G01*
G75*
%ADD15R,1.0000X0.8500*%
%ADD16R,1.0000X0.3000*%
%ADD17R,0.3000X1.0000*%
%ADD18R,0.9000X1.3000*%
%ADD19R,1.3000X0.9000*%
%ADD20R,2.0000X0.6000*%
%ADD21O,1.4500X0.3000*%
%ADD22R,1.4500X0.3000*%
%ADD23R,0.6000X1.5000*%
%ADD24R,1.5000X0.6000*%
G04:AMPARAMS|DCode=25|XSize=1.5mm|YSize=1.8mm|CornerRadius=0.375mm|HoleSize=0mm|Usage=FLASHONLY|Rotation=0.000|XOffset=0mm|YOffset=0mm|HoleType=Round|Shape=RoundedRectangle|*
%AMROUNDEDRECTD25*
21,1,1.5000,1.0500,0,0,0.0*
21,1,0.7500,1.8000,0,0,0.0*
1,1,0.7500,0.3750,-0.5250*
1,1,0.7500,-0.3750,-0.5250*
1,1,0.7500,-0.3750,0.5250*
1,1,0.7500,0.3750,0.5250*
%
%ADD25ROUNDEDRECTD25*%
%ADD26R,0.4000X1.3000*%
%ADD27R,1.3000X0.3500*%
%ADD28R,0.9000X0.3500*%
D15*
X117830Y423070D02*
D03*
X82830D02*
D03*
D16*
X135130Y204510D02*
D03*
Y199510D02*
D03*
Y194510D02*
D03*
Y189510D02*
D03*
X167130D02*
D03*
Y194510D02*
D03*
Y199510D02*
D03*
Y204510D02*
D03*
D17*
X143630Y181010D02*
D03*
X148630D02*
D03*
X153630D02*
D03*
X158630D02*
D03*
Y213010D02*
D03*
X153630D02*
D03*
X148630D02*
D03*
X143630D02*
D03*
D18*
X336390Y343060D02*
D03*
X316390D02*
D03*
X336390Y317660D02*
D03*
X316390D02*
D03*
X303690Y210980D02*
D03*
X323690D02*
D03*
Y184310D02*
D03*
X303690D02*
D03*
X219550Y217330D02*
D03*
X199550D02*
D03*
X143350Y136050D02*
D03*
X123350D02*
D03*
X133630Y247810D02*
D03*
X153630D02*
D03*
X101440D02*
D03*
X81440D02*
D03*
X429420Y233840D02*
D03*
X449420D02*
D03*
X429420Y257970D02*
D03*
X449420D02*
D03*
X429420Y283370D02*
D03*
X449420D02*
D03*
X472600Y257970D02*
D03*
X492600D02*
D03*
X472600Y283370D02*
D03*
X492600D02*
D03*
X523400Y304960D02*
D03*
X543400D02*
D03*
Y327820D02*
D03*
X523400D02*
D03*
Y350680D02*
D03*
X543400D02*
D03*
X590390Y136050D02*
D03*
X570390D02*
D03*
X590550Y111920D02*
D03*
X570550D02*
D03*
X654210Y150020D02*
D03*
X674210D02*
D03*
X568500Y228000D02*
D03*
X548500D02*
D03*
X548750Y205000D02*
D03*
X568750D02*
D03*
X179070Y424180D02*
D03*
X199070D02*
D03*
X158590D02*
D03*
X138590D02*
D03*
D19*
X275590Y190500D02*
D03*
Y170500D02*
D03*
X246380D02*
D03*
Y190500D02*
D03*
X349250Y279400D02*
D03*
Y259400D02*
D03*
Y214950D02*
D03*
Y234950D02*
D03*
X106680Y204510D02*
D03*
Y184510D02*
D03*
X82550Y204470D02*
D03*
Y184470D02*
D03*
X205740Y278500D02*
D03*
Y298500D02*
D03*
X424750Y363250D02*
D03*
Y383250D02*
D03*
X530860Y255590D02*
D03*
Y275590D02*
D03*
X579120Y350680D02*
D03*
Y330680D02*
D03*
X528320Y101600D02*
D03*
Y81600D02*
D03*
X505460Y101600D02*
D03*
Y81600D02*
D03*
X482600D02*
D03*
Y101600D02*
D03*
X650240Y272100D02*
D03*
Y292100D02*
D03*
X673100Y272100D02*
D03*
Y292100D02*
D03*
D20*
X243750Y288500D02*
D03*
Y275800D02*
D03*
Y263000D02*
D03*
Y250300D02*
D03*
X302350Y288500D02*
D03*
Y275800D02*
D03*
Y263000D02*
D03*
Y250300D02*
D03*
D21*
X493920Y340680D02*
D03*
Y345680D02*
D03*
Y350680D02*
D03*
Y355680D02*
D03*
Y360680D02*
D03*
X448420Y340680D02*
D03*
Y345680D02*
D03*
Y350680D02*
D03*
Y355680D02*
D03*
D22*
Y360680D02*
D03*
D23*
X499110Y201570D02*
D03*
X524510D02*
D03*
Y136570D02*
D03*
X499110D02*
D03*
D24*
X534310Y181570D02*
D03*
Y169070D02*
D03*
Y156570D02*
D03*
X489310D02*
D03*
Y169070D02*
D03*
Y181570D02*
D03*
D25*
X285190Y40800D02*
D03*
X262890D02*
D03*
X145490Y42070D02*
D03*
X123190D02*
D03*
D26*
X610250Y171000D02*
D03*
X616550Y209500D02*
D03*
X608550D02*
D03*
D27*
X628750Y175000D02*
D03*
Y182500D02*
D03*
Y190000D02*
D03*
Y197500D02*
D03*
Y205000D02*
D03*
X588350D02*
D03*
Y197500D02*
D03*
Y190000D02*
D03*
Y182500D02*
D03*
Y175000D02*
D03*
D28*
X617540Y253300D02*
D03*
Y259800D02*
D03*
Y266300D02*
D03*
Y272800D02*
D03*
X594040Y253300D02*
D03*
Y259800D02*
D03*
Y266300D02*
D03*
Y272800D02*
D03*
M02*
