G04*
G04 #@! TF.GenerationSoftware,Altium Limited,Altium Designer,20.0.12 (288)*
G04*
G04 Layer_Physical_Order=2*
G04 Layer_Color=16711680*
%FSLAX44Y44*%
%MOMM*%
G71*
G01*
G75*
%ADD10C,0.2540*%
%ADD13C,0.1500*%
%ADD29C,1.0000*%
%ADD49C,0.4000*%
%ADD51C,1.8000*%
%ADD52R,1.8000X1.8000*%
%ADD53C,1.6000*%
%ADD54O,1.6000X2.0000*%
%ADD55R,1.6000X2.0000*%
%ADD56C,1.5000*%
%ADD57C,1.2700*%
G36*
X173750Y487480D02*
X173750Y447000D01*
X208000D01*
X211750Y443250D01*
Y363250D01*
X186750D01*
X186500Y363500D01*
Y393620D01*
X180120Y400000D01*
X179241Y399121D01*
X156629D01*
X145500Y410250D01*
X117041D01*
X103291Y424000D01*
X79103D01*
X68247Y434856D01*
X68841Y436059D01*
X68980Y436041D01*
Y446000D01*
X70250D01*
Y447270D01*
X80209D01*
X80032Y448621D01*
X79020Y451063D01*
X77411Y453161D01*
X75313Y454770D01*
X73223Y455636D01*
X72745Y456955D01*
X80791Y465000D01*
X153250D01*
X153500Y488750D01*
X172687D01*
X173750Y487480D01*
D02*
G37*
G36*
X297500Y430080D02*
Y378750D01*
X287750Y369000D01*
X269000D01*
Y433180D01*
Y436750D01*
X290830D01*
X297500Y430080D01*
D02*
G37*
G36*
X455609Y545891D02*
X591750Y545000D01*
X720500Y416250D01*
Y338500D01*
X754000Y305000D01*
X752500Y303500D01*
Y155750D01*
X719250Y122500D01*
X696000Y145750D01*
X656500D01*
X654000Y148250D01*
Y243750D01*
X626000D01*
X607250Y225000D01*
Y148750D01*
X590000D01*
X584750Y154000D01*
Y232760D01*
X635990Y284000D01*
X636250D01*
Y295250D01*
X630500Y301000D01*
X607250D01*
X602250Y296000D01*
X597250Y294718D01*
X573750Y296000D01*
X495000Y219750D01*
Y180500D01*
X480750Y166250D01*
X438750D01*
Y234750D01*
X489500Y285500D01*
X519750D01*
Y330500D01*
X518750Y331500D01*
X413500D01*
X377500Y295500D01*
Y173000D01*
X448250Y102250D01*
Y20750D01*
X446250Y18750D01*
X14750D01*
Y313000D01*
Y330000D01*
X14000Y417500D01*
X14250Y418750D01*
X40500D01*
Y392500D01*
X38250Y390250D01*
Y357000D01*
X42000Y353250D01*
X70250D01*
X81500Y360500D01*
Y369035D01*
X129715D01*
X134500Y364250D01*
Y326750D01*
X90000Y282250D01*
Y190000D01*
X92000Y188000D01*
X133088D01*
X160075Y161012D01*
X159828Y159767D01*
X158935Y159397D01*
X156837Y157788D01*
X155228Y155690D01*
X154216Y153248D01*
X154038Y151897D01*
X163998D01*
Y150627D01*
X165268D01*
Y140668D01*
X166619Y140845D01*
X169061Y141857D01*
X171159Y143467D01*
X172768Y145564D01*
X173185Y146572D01*
X174431Y146819D01*
X193500Y127750D01*
X211750D01*
X288000Y204000D01*
X349750Y265750D01*
Y330250D01*
X380000Y360500D01*
Y368663D01*
X380432Y369471D01*
X381492Y372966D01*
X381522Y373272D01*
X383000Y374750D01*
Y387500D01*
X354000Y416500D01*
Y483250D01*
X361250Y490500D01*
X376500D01*
Y472500D01*
X396250Y452750D01*
X400750D01*
Y402000D01*
X413500Y389250D01*
Y361500D01*
X496000D01*
X507500Y373000D01*
X473000Y407500D01*
Y449750D01*
X429500Y493250D01*
Y497750D01*
X409000D01*
X408500Y498250D01*
Y525000D01*
X310000Y525000D01*
X308750Y523750D01*
X290250D01*
X275000Y539000D01*
X254462D01*
X253500Y539127D01*
X252538Y539000D01*
X236750D01*
X226750Y529000D01*
Y496250D01*
X203750D01*
X203500Y496500D01*
Y523500D01*
X127250D01*
X123000Y519250D01*
Y497250D01*
X102854D01*
X102750Y497500D01*
Y523500D01*
X47750D01*
X44250Y520000D01*
Y495000D01*
X15402Y494758D01*
X14500Y495652D01*
Y545000D01*
X15500Y546000D01*
X455500D01*
X455609Y545891D01*
D02*
G37*
G36*
X206594Y249156D02*
Y190000D01*
X198730Y187216D01*
X192784D01*
X182161Y197839D01*
Y228089D01*
X170000Y240250D01*
Y251000D01*
X174750Y255750D01*
X200000D01*
X206594Y249156D01*
D02*
G37*
G36*
X71000Y468250D02*
X64250D01*
X43750Y447750D01*
X78250Y413250D01*
X99250D01*
X110000Y402500D01*
X140000Y402500D01*
X152250Y390250D01*
X162580D01*
Y380870D01*
X173120D01*
Y379600D01*
X174390D01*
Y367060D01*
X181250D01*
Y320250D01*
X138170Y277170D01*
Y216920D01*
X136130Y209620D01*
X139453Y206060D01*
X139661Y205013D01*
X140503Y203753D01*
X157040Y187216D01*
X158750Y185384D01*
Y183816D01*
Y176000D01*
X177660Y157090D01*
X202938D01*
X210250Y164402D01*
Y206750D01*
X329000Y325500D01*
X344170Y310330D01*
Y266920D01*
X212750Y135500D01*
Y135250D01*
X193500D01*
X171805Y156945D01*
X171159Y157788D01*
X170315Y158435D01*
X133750Y195000D01*
X98500D01*
Y278000D01*
X98250Y278250D01*
X143250Y323250D01*
Y361470D01*
X128120Y376600D01*
X81500D01*
Y381000D01*
X66000Y396500D01*
X55250D01*
X45625Y406125D01*
Y421925D01*
X14500D01*
Y489750D01*
X71000D01*
Y468250D01*
D02*
G37*
G36*
X630500Y293500D02*
Y285500D01*
X629850D01*
X578250Y233900D01*
Y156000D01*
X585640Y148610D01*
X586039Y148089D01*
X586560Y147690D01*
X594000Y140250D01*
X606750D01*
X612750Y146250D01*
X624337Y146250D01*
X636729Y136050D01*
X687800D01*
X688750Y137000D01*
X707250Y118500D01*
Y70500D01*
X655750Y19000D01*
X594747D01*
X594224Y19749D01*
X593637Y19000D01*
X456750Y19000D01*
Y19000D01*
X456750Y19000D01*
X456750Y19000D01*
Y110250D01*
X458250Y111750D01*
X519750D01*
X538000Y93500D01*
X586750D01*
Y124000D01*
X577250Y133500D01*
X474500D01*
X471500Y130500D01*
X454250D01*
Y149750D01*
X461000Y156500D01*
X515250D01*
Y215250D01*
X556250Y256250D01*
X556250Y272000D01*
X569750Y285500D01*
X604750D01*
X617750Y295937D01*
X628063D01*
X630500Y293500D01*
D02*
G37*
%LPC*%
G36*
X163612Y465709D02*
Y457020D01*
X172302D01*
X172124Y458371D01*
X171112Y460813D01*
X169503Y462911D01*
X167405Y464520D01*
X164963Y465532D01*
X163612Y465709D01*
D02*
G37*
G36*
X161072D02*
X159721Y465532D01*
X157279Y464520D01*
X155182Y462911D01*
X153572Y460813D01*
X152561Y458371D01*
X152383Y457020D01*
X161072D01*
Y465709D01*
D02*
G37*
G36*
X172302Y454480D02*
X163612D01*
Y445791D01*
X164963Y445968D01*
X167405Y446980D01*
X169503Y448589D01*
X171112Y450687D01*
X172124Y453129D01*
X172302Y454480D01*
D02*
G37*
G36*
X161072D02*
X152383D01*
X152561Y453129D01*
X153572Y450687D01*
X155182Y448589D01*
X157279Y446980D01*
X159721Y445968D01*
X161072Y445791D01*
Y454480D01*
D02*
G37*
G36*
X80209Y444730D02*
X71520D01*
Y436041D01*
X72871Y436218D01*
X75313Y437230D01*
X77411Y438839D01*
X79020Y440937D01*
X80032Y443379D01*
X80209Y444730D01*
D02*
G37*
G36*
X199790Y392064D02*
Y380870D01*
X209151D01*
Y381600D01*
X208789Y384352D01*
X207727Y386916D01*
X206037Y389117D01*
X203836Y390807D01*
X201271Y391869D01*
X199790Y392064D01*
D02*
G37*
G36*
X197250D02*
X195769Y391869D01*
X193204Y390807D01*
X191003Y389117D01*
X189313Y386916D01*
X188251Y384352D01*
X187889Y381600D01*
Y380870D01*
X197250D01*
Y392064D01*
D02*
G37*
G36*
X209151Y378330D02*
X199790D01*
Y367136D01*
X201271Y367331D01*
X203836Y368393D01*
X206037Y370083D01*
X207727Y372285D01*
X208789Y374849D01*
X209151Y377600D01*
Y378330D01*
D02*
G37*
G36*
X197250D02*
X187889D01*
Y377600D01*
X188251Y374849D01*
X189313Y372285D01*
X191003Y370083D01*
X193204Y368393D01*
X195769Y367331D01*
X197250Y367136D01*
Y378330D01*
D02*
G37*
G36*
X453770Y499709D02*
Y491020D01*
X462459D01*
X462282Y492371D01*
X461270Y494813D01*
X459661Y496911D01*
X457563Y498520D01*
X455121Y499532D01*
X453770Y499709D01*
D02*
G37*
G36*
X451230D02*
X449879Y499532D01*
X447437Y498520D01*
X445339Y496911D01*
X443730Y494813D01*
X442718Y492371D01*
X442541Y491020D01*
X451230D01*
Y499709D01*
D02*
G37*
G36*
X462459Y488480D02*
X453770D01*
Y479791D01*
X455121Y479968D01*
X457563Y480980D01*
X459661Y482589D01*
X461270Y484687D01*
X462282Y487129D01*
X462459Y488480D01*
D02*
G37*
G36*
X451230D02*
X442541D01*
X442718Y487129D01*
X443730Y484687D01*
X445339Y482589D01*
X447437Y480980D01*
X449879Y479968D01*
X451230Y479791D01*
Y488480D01*
D02*
G37*
G36*
X380520Y458209D02*
Y449520D01*
X389209D01*
X389032Y450871D01*
X388020Y453313D01*
X386411Y455411D01*
X384313Y457020D01*
X381871Y458032D01*
X380520Y458209D01*
D02*
G37*
G36*
X377980D02*
X376629Y458032D01*
X374187Y457020D01*
X372089Y455411D01*
X370480Y453313D01*
X369468Y450871D01*
X369291Y449520D01*
X377980D01*
Y458209D01*
D02*
G37*
G36*
X389209Y446980D02*
X380520D01*
Y438291D01*
X381871Y438468D01*
X384313Y439480D01*
X386411Y441089D01*
X388020Y443187D01*
X389032Y445629D01*
X389209Y446980D01*
D02*
G37*
G36*
X377980D02*
X369291D01*
X369468Y445629D01*
X370480Y443187D01*
X372089Y441089D01*
X374187Y439480D01*
X376629Y438468D01*
X377980Y438291D01*
Y446980D01*
D02*
G37*
G36*
X392770Y373209D02*
Y364520D01*
X401459D01*
X401282Y365871D01*
X400270Y368313D01*
X398661Y370411D01*
X396563Y372020D01*
X394121Y373032D01*
X392770Y373209D01*
D02*
G37*
G36*
X390230D02*
X388879Y373032D01*
X386437Y372020D01*
X384339Y370411D01*
X382730Y368313D01*
X381718Y365871D01*
X381541Y364520D01*
X390230D01*
Y373209D01*
D02*
G37*
G36*
X562610Y373179D02*
Y364490D01*
X571299D01*
X571122Y365841D01*
X570110Y368283D01*
X568501Y370381D01*
X566403Y371990D01*
X563961Y373002D01*
X562610Y373179D01*
D02*
G37*
G36*
X560070D02*
X558719Y373002D01*
X556277Y371990D01*
X554179Y370381D01*
X552570Y368283D01*
X551558Y365841D01*
X551381Y364490D01*
X560070D01*
Y373179D01*
D02*
G37*
G36*
X401459Y361980D02*
X392770D01*
Y353291D01*
X394121Y353468D01*
X396563Y354480D01*
X398661Y356089D01*
X400270Y358187D01*
X401282Y360629D01*
X401459Y361980D01*
D02*
G37*
G36*
X390230D02*
X381541D01*
X381718Y360629D01*
X382730Y358187D01*
X384339Y356089D01*
X386437Y354480D01*
X388879Y353468D01*
X390230Y353291D01*
Y361980D01*
D02*
G37*
G36*
X571299Y361950D02*
X562610D01*
Y353261D01*
X563961Y353438D01*
X566403Y354450D01*
X568501Y356059D01*
X570110Y358157D01*
X571122Y360599D01*
X571299Y361950D01*
D02*
G37*
G36*
X560070D02*
X551381D01*
X551558Y360599D01*
X552570Y358157D01*
X554179Y356059D01*
X556277Y354450D01*
X558719Y353438D01*
X560070Y353261D01*
Y361950D01*
D02*
G37*
G36*
X369020Y329209D02*
Y320520D01*
X377709D01*
X377532Y321871D01*
X376520Y324313D01*
X374911Y326411D01*
X372813Y328020D01*
X370371Y329032D01*
X369020Y329209D01*
D02*
G37*
G36*
X366480D02*
X365129Y329032D01*
X362687Y328020D01*
X360589Y326411D01*
X358980Y324313D01*
X357968Y321871D01*
X357791Y320520D01*
X366480D01*
Y329209D01*
D02*
G37*
G36*
X662940Y326189D02*
Y317500D01*
X671629D01*
X671452Y318851D01*
X670440Y321293D01*
X668831Y323391D01*
X666733Y325000D01*
X664291Y326012D01*
X662940Y326189D01*
D02*
G37*
G36*
X660400D02*
X659049Y326012D01*
X656607Y325000D01*
X654509Y323391D01*
X652900Y321293D01*
X651888Y318851D01*
X651711Y317500D01*
X660400D01*
Y326189D01*
D02*
G37*
G36*
X377709Y317980D02*
X369020D01*
Y309291D01*
X370371Y309468D01*
X372813Y310480D01*
X374911Y312089D01*
X376520Y314187D01*
X377532Y316629D01*
X377709Y317980D01*
D02*
G37*
G36*
X366480D02*
X357791D01*
X357968Y316629D01*
X358980Y314187D01*
X360589Y312089D01*
X362687Y310480D01*
X365129Y309468D01*
X366480Y309291D01*
Y317980D01*
D02*
G37*
G36*
X671629Y314960D02*
X662940D01*
Y306271D01*
X664291Y306448D01*
X666733Y307460D01*
X668831Y309069D01*
X670440Y311167D01*
X671452Y313609D01*
X671629Y314960D01*
D02*
G37*
G36*
X660400D02*
X651711D01*
X651888Y313609D01*
X652900Y311167D01*
X654509Y309069D01*
X655270Y308486D01*
X656607Y307460D01*
X659049Y306448D01*
X660400Y306271D01*
Y314960D01*
D02*
G37*
G36*
X455270Y200709D02*
Y192020D01*
X463959D01*
X463782Y193371D01*
X462770Y195813D01*
X461161Y197911D01*
X459063Y199520D01*
X456621Y200532D01*
X455270Y200709D01*
D02*
G37*
G36*
X452730D02*
X451379Y200532D01*
X448937Y199520D01*
X446839Y197911D01*
X445230Y195813D01*
X444218Y193371D01*
X444041Y192020D01*
X452730D01*
Y200709D01*
D02*
G37*
G36*
X463959Y189480D02*
X455270D01*
Y180791D01*
X456621Y180968D01*
X459063Y181980D01*
X461161Y183589D01*
X462770Y185687D01*
X463782Y188129D01*
X463959Y189480D01*
D02*
G37*
G36*
X452730D02*
X444041D01*
X444218Y188129D01*
X445230Y185687D01*
X446839Y183589D01*
X448937Y181980D01*
X451379Y180968D01*
X452730Y180791D01*
Y189480D01*
D02*
G37*
G36*
X107990Y177012D02*
Y168322D01*
X116679D01*
X116502Y169673D01*
X115490Y172115D01*
X113881Y174213D01*
X111783Y175822D01*
X109341Y176834D01*
X107990Y177012D01*
D02*
G37*
G36*
X105450D02*
X104099Y176834D01*
X101657Y175822D01*
X99559Y174213D01*
X97950Y172115D01*
X96938Y169673D01*
X96761Y168322D01*
X105450D01*
Y177012D01*
D02*
G37*
G36*
X116679Y165782D02*
X107990D01*
Y157093D01*
X109341Y157270D01*
X111783Y158282D01*
X113881Y159892D01*
X115490Y161989D01*
X116502Y164431D01*
X116679Y165782D01*
D02*
G37*
G36*
X105450D02*
X96761D01*
X96938Y164431D01*
X97950Y161989D01*
X99559Y159892D01*
X101657Y158282D01*
X104099Y157270D01*
X105450Y157093D01*
Y165782D01*
D02*
G37*
G36*
X162728Y149357D02*
X154038D01*
X154216Y148006D01*
X155228Y145564D01*
X156837Y143467D01*
X158935Y141857D01*
X161377Y140845D01*
X162728Y140668D01*
Y149357D01*
D02*
G37*
G36*
X363220Y110230D02*
X359585Y109872D01*
X356091Y108812D01*
X352870Y107090D01*
X350047Y104773D01*
X347730Y101950D01*
X346008Y98729D01*
X344948Y95234D01*
X344590Y91600D01*
X344948Y87965D01*
X346008Y84471D01*
X347730Y81250D01*
X350047Y78427D01*
X352870Y76110D01*
X356091Y74388D01*
X359585Y73328D01*
X363220Y72970D01*
X366855Y73328D01*
X370349Y74388D01*
X373570Y76110D01*
X376393Y78427D01*
X378710Y81250D01*
X380432Y84471D01*
X381492Y87965D01*
X381850Y91600D01*
X381492Y95234D01*
X380432Y98729D01*
X378710Y101950D01*
X376393Y104773D01*
X373570Y107090D01*
X370349Y108812D01*
X366855Y109872D01*
X363220Y110230D01*
D02*
G37*
G36*
X59220D02*
X55585Y109872D01*
X52091Y108812D01*
X48870Y107090D01*
X46047Y104773D01*
X43730Y101950D01*
X42008Y98729D01*
X40948Y95234D01*
X40590Y91600D01*
X40948Y87965D01*
X42008Y84471D01*
X43730Y81250D01*
X46047Y78427D01*
X48870Y76110D01*
X52091Y74388D01*
X55585Y73328D01*
X59220Y72970D01*
X62854Y73328D01*
X66349Y74388D01*
X69570Y76110D01*
X72393Y78427D01*
X74710Y81250D01*
X76432Y84471D01*
X77492Y87965D01*
X77850Y91600D01*
X77492Y95234D01*
X76432Y98729D01*
X74710Y101950D01*
X72393Y104773D01*
X69570Y107090D01*
X66349Y108812D01*
X62854Y109872D01*
X59220Y110230D01*
D02*
G37*
G36*
X250270Y73209D02*
Y64520D01*
X258959D01*
X258782Y65871D01*
X257770Y68313D01*
X256161Y70411D01*
X254063Y72020D01*
X251621Y73032D01*
X250270Y73209D01*
D02*
G37*
G36*
X247730D02*
X246379Y73032D01*
X243937Y72020D01*
X241839Y70411D01*
X240230Y68313D01*
X239218Y65871D01*
X239041Y64520D01*
X247730D01*
Y73209D01*
D02*
G37*
G36*
X258959Y61980D02*
X250270D01*
Y53291D01*
X251621Y53468D01*
X254063Y54480D01*
X256161Y56089D01*
X257770Y58187D01*
X258782Y60629D01*
X258959Y61980D01*
D02*
G37*
G36*
X247730D02*
X239041D01*
X239218Y60629D01*
X240230Y58187D01*
X241839Y56089D01*
X243937Y54480D01*
X246379Y53468D01*
X247730Y53291D01*
Y61980D01*
D02*
G37*
G36*
X33020Y464209D02*
Y455520D01*
X41709D01*
X41532Y456871D01*
X40520Y459313D01*
X38911Y461411D01*
X36813Y463020D01*
X34371Y464032D01*
X33020Y464209D01*
D02*
G37*
G36*
X30480D02*
X29129Y464032D01*
X26687Y463020D01*
X24589Y461411D01*
X22980Y459313D01*
X21968Y456871D01*
X21791Y455520D01*
X30480D01*
Y464209D01*
D02*
G37*
G36*
X41709Y452980D02*
X33020D01*
Y444291D01*
X34371Y444468D01*
X36813Y445480D01*
X38911Y447089D01*
X40520Y449187D01*
X41532Y451629D01*
X41709Y452980D01*
D02*
G37*
G36*
X30480D02*
X21791D01*
X21968Y451629D01*
X22980Y449187D01*
X24589Y447089D01*
X26687Y445480D01*
X29129Y444468D01*
X30480Y444291D01*
Y452980D01*
D02*
G37*
G36*
X171850Y378330D02*
X162580D01*
Y367060D01*
X171850D01*
Y378330D01*
D02*
G37*
G36*
X330270Y307959D02*
Y299270D01*
X338959D01*
X338782Y300621D01*
X337770Y303063D01*
X336161Y305161D01*
X334063Y306770D01*
X331621Y307782D01*
X330270Y307959D01*
D02*
G37*
G36*
X327730D02*
X326379Y307782D01*
X323937Y306770D01*
X321839Y305161D01*
X320230Y303063D01*
X319218Y300621D01*
X319041Y299270D01*
X327730D01*
Y307959D01*
D02*
G37*
G36*
X338959Y296730D02*
X330270D01*
Y288041D01*
X331621Y288218D01*
X334063Y289230D01*
X336161Y290839D01*
X337770Y292937D01*
X338782Y295379D01*
X338959Y296730D01*
D02*
G37*
G36*
X327730D02*
X319041D01*
X319218Y295379D01*
X320230Y292937D01*
X321839Y290839D01*
X323937Y289230D01*
X326379Y288218D01*
X327730Y288041D01*
Y296730D01*
D02*
G37*
G36*
X127770Y229209D02*
Y220520D01*
X136459D01*
X136282Y221871D01*
X135270Y224313D01*
X133661Y226411D01*
X131563Y228020D01*
X129121Y229032D01*
X127770Y229209D01*
D02*
G37*
G36*
X125230D02*
X123879Y229032D01*
X121437Y228020D01*
X119339Y226411D01*
X117730Y224313D01*
X116718Y221871D01*
X116541Y220520D01*
X125230D01*
Y229209D01*
D02*
G37*
G36*
X136459Y217980D02*
X127770D01*
Y209291D01*
X129121Y209468D01*
X131563Y210480D01*
X133661Y212089D01*
X135270Y214187D01*
X136282Y216629D01*
X136459Y217980D01*
D02*
G37*
G36*
X125230D02*
X116541D01*
X116718Y216629D01*
X117730Y214187D01*
X119339Y212089D01*
X121437Y210480D01*
X123879Y209468D01*
X125230Y209291D01*
Y217980D01*
D02*
G37*
G36*
X566463Y193300D02*
Y185770D01*
X573992D01*
X573854Y186821D01*
X572958Y188983D01*
X571533Y190840D01*
X569676Y192265D01*
X567513Y193161D01*
X566463Y193300D01*
D02*
G37*
G36*
X563923D02*
X562872Y193161D01*
X560709Y192265D01*
X558852Y190840D01*
X557427Y188983D01*
X556531Y186821D01*
X556393Y185770D01*
X563923D01*
Y193300D01*
D02*
G37*
G36*
X573992Y183230D02*
X566463D01*
Y175700D01*
X567513Y175839D01*
X569676Y176735D01*
X571533Y178160D01*
X572958Y180017D01*
X573854Y182179D01*
X573992Y183230D01*
D02*
G37*
G36*
X563923D02*
X556393D01*
X556531Y182179D01*
X557427Y180017D01*
X558852Y178160D01*
X560709Y176735D01*
X562872Y175839D01*
X563923Y175700D01*
Y183230D01*
D02*
G37*
G36*
X645020Y121709D02*
Y113020D01*
X653709D01*
X653532Y114371D01*
X652520Y116813D01*
X650911Y118911D01*
X648813Y120520D01*
X646371Y121532D01*
X645020Y121709D01*
D02*
G37*
G36*
X642480D02*
X641129Y121532D01*
X638687Y120520D01*
X636589Y118911D01*
X634980Y116813D01*
X633968Y114371D01*
X633791Y113020D01*
X642480D01*
Y121709D01*
D02*
G37*
G36*
X653709Y110480D02*
X645020D01*
Y101791D01*
X646371Y101968D01*
X648813Y102980D01*
X650911Y104589D01*
X652520Y106687D01*
X653532Y109129D01*
X653709Y110480D01*
D02*
G37*
G36*
X642480D02*
X633791D01*
X633968Y109129D01*
X634980Y106687D01*
X636589Y104589D01*
X638687Y102980D01*
X641129Y101968D01*
X642480Y101791D01*
Y110480D01*
D02*
G37*
G36*
X506520Y66459D02*
Y57770D01*
X515209D01*
X515032Y59121D01*
X514020Y61563D01*
X512411Y63661D01*
X510313Y65270D01*
X507871Y66282D01*
X506520Y66459D01*
D02*
G37*
G36*
X503980D02*
X502629Y66282D01*
X500187Y65270D01*
X498089Y63661D01*
X496480Y61563D01*
X495468Y59121D01*
X495291Y57770D01*
X503980D01*
Y66459D01*
D02*
G37*
G36*
X515209Y55230D02*
X506520D01*
Y46541D01*
X507871Y46718D01*
X510313Y47730D01*
X512411Y49339D01*
X514020Y51437D01*
X515032Y53879D01*
X515209Y55230D01*
D02*
G37*
G36*
X503980D02*
X495291D01*
X495468Y53879D01*
X496480Y51437D01*
X498089Y49339D01*
X500187Y47730D01*
X502629Y46718D01*
X503980Y46541D01*
Y55230D01*
D02*
G37*
%LPD*%
D10*
X565192Y272943D02*
X573500Y281250D01*
X613000D02*
X620500Y288750D01*
X573500Y281250D02*
X613000D01*
X158750Y176000D02*
Y180080D01*
X126500Y216282D02*
X131250Y211532D01*
Y207580D02*
X158750Y180080D01*
X126500Y216282D02*
Y219250D01*
X131250Y207580D02*
Y211532D01*
X115250Y230500D02*
X126500Y219250D01*
X174350Y175400D02*
X175500D01*
X158750Y176000D02*
X177660Y157090D01*
X143250Y206500D02*
X174350Y175400D01*
X629500Y229000D02*
X639000Y219500D01*
X627874Y229000D02*
X629500D01*
X565192Y184500D02*
Y272943D01*
Y164058D02*
X593200Y136050D01*
X616250D01*
X565192Y164058D02*
Y184500D01*
X539000Y137750D02*
X565192Y163943D01*
Y164058D01*
X462500Y137750D02*
X539000D01*
X427750Y136000D02*
X444250Y119500D01*
X546500D01*
X279500Y386058D02*
Y423750D01*
Y386058D02*
X286250Y379308D01*
X278000Y348262D02*
Y349000D01*
X275500Y345762D02*
X278000Y348262D01*
X305000Y376000D02*
Y437500D01*
X278000Y349000D02*
X305000Y376000D01*
X280580Y343658D02*
X316230Y379308D01*
X280580Y306764D02*
Y343658D01*
X275500Y308868D02*
Y345762D01*
X316230Y379308D02*
Y444750D01*
X326750Y380750D02*
Y422000D01*
X288500Y342500D02*
X326750Y380750D01*
X288500Y307500D02*
Y342500D01*
X257066Y283250D02*
X280580Y306764D01*
X253750Y272750D02*
X288500Y307500D01*
X260382Y293750D02*
X275500Y308868D01*
X253500Y529000D02*
X263750D01*
X272250Y520500D01*
X51373Y472768D02*
X54778D01*
X62230Y480220D01*
X100500Y396500D02*
X135750D01*
X75750D02*
X100500D01*
X31750Y453250D02*
X32000Y453000D01*
X31750Y453250D02*
Y454250D01*
X32000Y440250D02*
Y453000D01*
Y440250D02*
X75750Y396500D01*
X450000Y380750D02*
Y448050D01*
X417830Y480220D02*
X450000Y448050D01*
X422000Y315750D02*
X495250D01*
X392500Y286250D02*
X422000Y315750D01*
X392500Y258250D02*
Y286250D01*
Y218250D02*
Y258250D01*
X328980Y457500D02*
X331250D01*
X316230Y444750D02*
X328980Y457500D01*
X326750Y422000D02*
X331250Y426500D01*
X272250Y520500D02*
X278000Y514750D01*
Y464500D02*
Y514750D01*
X177000Y283250D02*
X257066D01*
X164250Y293750D02*
X260382D01*
X183000Y272750D02*
X253750D01*
X162750Y252500D02*
X183000Y272750D01*
X162750Y231500D02*
X170000Y224250D01*
X162750Y231500D02*
Y252500D01*
X278000Y464500D02*
X305000Y437500D01*
X392500Y218250D02*
X427750Y183000D01*
X135750Y396500D02*
X152650Y379600D01*
X173120D01*
Y381600D01*
X179850Y388330D01*
X173120Y377600D02*
Y379600D01*
X158000Y362480D02*
X173120Y377600D01*
X158000Y324000D02*
Y362480D01*
X115250Y230500D02*
Y281250D01*
X158000Y324000D01*
X504500Y303000D02*
X505500Y302000D01*
X422000Y303000D02*
X504500D01*
X410500Y291500D02*
X422000Y303000D01*
X410500Y233750D02*
Y291500D01*
X427750Y136000D02*
Y183000D01*
X152750Y259000D02*
X177000Y283250D01*
X143250Y272750D02*
X164250Y293750D01*
X143250Y206500D02*
Y272750D01*
X152750Y216250D02*
X198730Y170270D01*
X152750Y216250D02*
Y259000D01*
X221000Y175152D02*
Y190000D01*
X202938Y157090D02*
X221000Y175152D01*
X177660Y157090D02*
X202938D01*
X198730Y167250D02*
Y170270D01*
X221000Y190000D02*
X221000D01*
X639000Y150000D02*
Y219500D01*
X505250Y56500D02*
X588500D01*
X643750Y111750D01*
X221000Y190000D02*
X329000Y298000D01*
D13*
X265430Y502820D02*
Y505620D01*
D29*
X762000Y199390D02*
G03*
X769620Y306070I-49530J57150D01*
G01*
X730250Y416560D02*
G03*
X576580Y554990I-146050J-7620D01*
G01*
X769620Y306070D02*
G03*
X730250Y416560I-74930J35560D01*
G01*
X720090Y100330D02*
G03*
X762000Y199390I-28575J70485D01*
G01*
X647700Y6350D02*
G03*
X720090Y100330I-10795J83185D01*
G01*
X6350Y554990D02*
X576580D01*
X6350Y6350D02*
X647700D01*
X6350D02*
Y554990D01*
D49*
X114625Y412500D02*
X149500D01*
X100500Y426625D02*
Y455750D01*
Y426625D02*
X114625Y412500D01*
X106720Y167052D02*
X147573D01*
X163998Y150627D01*
X50448Y167052D02*
X106720D01*
X160000Y154625D02*
X163998Y150627D01*
X160000Y154625D02*
X210688Y103938D01*
X645000Y270000D02*
X660182D01*
X661670Y271488D02*
Y316230D01*
X660182Y270000D02*
X661670Y271488D01*
X610250Y235250D02*
X645000Y270000D01*
X43000Y174500D02*
X50448Y167052D01*
X43000Y174500D02*
Y250250D01*
X25750Y267500D02*
X43000Y250250D01*
X59750D01*
X25750Y267500D02*
Y410250D01*
X454000Y190750D02*
X561340Y298090D01*
Y363220D01*
X593200Y218200D02*
X610250Y235250D01*
X593200Y155250D02*
Y218200D01*
X349000Y184000D02*
X433500Y99500D01*
X440250D01*
X349000Y184000D02*
X358000Y193000D01*
Y309507D02*
X391500Y343007D01*
X173121Y244879D02*
X198730Y219270D01*
X597250Y301000D02*
X612480Y316230D01*
X661670D01*
X210688Y103938D02*
X249000Y65625D01*
X290750Y184000D02*
X349000D01*
X210688Y103938D02*
X290750Y184000D01*
X214000Y531750D02*
X214630Y531120D01*
Y529000D02*
Y531120D01*
X293500Y541750D02*
X302500Y532750D01*
X224000Y541750D02*
X293500D01*
X214000Y531750D02*
X224000Y541750D01*
X113780Y531750D02*
X214000D01*
X113030Y531000D02*
X113780Y531750D01*
X391500Y363250D02*
Y387313D01*
Y343007D02*
Y363250D01*
X452500Y489750D02*
X561340Y380910D01*
Y363220D02*
Y380910D01*
X358000Y193000D02*
Y309507D01*
X539370Y341250D02*
X561340Y363220D01*
X393257Y341250D02*
X539370D01*
X391500Y343007D02*
X393257Y341250D01*
X379250Y399563D02*
Y448250D01*
Y399563D02*
X391500Y387313D01*
X175493Y247250D02*
X177000D01*
X173121Y244879D02*
X175493Y247250D01*
X180120Y400000D02*
X198520Y381600D01*
X149500Y412500D02*
X162000Y400000D01*
X180120D01*
X100500Y455750D02*
X162342D01*
X80000D02*
X100500D01*
X198520Y379600D02*
Y381600D01*
X70250Y446000D02*
X80000Y455750D01*
X198730Y194510D02*
Y219270D01*
X249000Y63250D02*
Y65625D01*
X614680Y363220D02*
X661670Y316230D01*
X561340Y363220D02*
X614680D01*
D51*
X417830Y505620D02*
D03*
X392430D02*
D03*
X367030D02*
D03*
X341630D02*
D03*
X316230D02*
D03*
X290830D02*
D03*
X265430D02*
D03*
X240030D02*
D03*
X214630D02*
D03*
X189230D02*
D03*
X163830D02*
D03*
X138430D02*
D03*
X113030D02*
D03*
X87630D02*
D03*
X62230D02*
D03*
X417830Y480220D02*
D03*
X392430D02*
D03*
X367030D02*
D03*
X341630D02*
D03*
X316230D02*
D03*
X290830D02*
D03*
X265430D02*
D03*
X240030D02*
D03*
X214630D02*
D03*
X189230D02*
D03*
X163830D02*
D03*
X138430D02*
D03*
X113030D02*
D03*
X87630D02*
D03*
D52*
X62230D02*
D03*
D53*
X59220Y376600D02*
D03*
Y91600D02*
D03*
X363220Y376600D02*
D03*
Y91600D02*
D03*
D54*
X249320Y379600D02*
D03*
X223920D02*
D03*
X198520D02*
D03*
D55*
X173120D02*
D03*
D56*
X175500Y175400D02*
D03*
X126500Y219250D02*
D03*
X106720Y167052D02*
D03*
X163998Y150627D02*
D03*
X627874Y229000D02*
D03*
X59750Y250250D02*
D03*
X25750Y410250D02*
D03*
X454000Y190750D02*
D03*
X593200Y155250D02*
D03*
X610250Y235250D02*
D03*
X440250Y99500D02*
D03*
X462500Y137750D02*
D03*
X597250Y301000D02*
D03*
X286250Y379308D02*
D03*
X279500Y423750D02*
D03*
X214630Y529000D02*
D03*
X253500D02*
D03*
X113030Y531000D02*
D03*
X100500Y396500D02*
D03*
X31750Y454250D02*
D03*
X162342Y455750D02*
D03*
X391500Y363250D02*
D03*
X367750Y319250D02*
D03*
X452500Y489750D02*
D03*
X450000Y380750D02*
D03*
X379250Y448250D02*
D03*
X302500Y532750D02*
D03*
X331250Y457500D02*
D03*
Y426500D02*
D03*
X177000Y247250D02*
D03*
X170000Y224250D02*
D03*
X392500Y258250D02*
D03*
X70250Y446000D02*
D03*
X505500Y302000D02*
D03*
X495250Y315750D02*
D03*
X410500Y233750D02*
D03*
X546500Y119500D02*
D03*
X198730Y167250D02*
D03*
Y194510D02*
D03*
X639000Y150000D02*
D03*
X616250Y136050D02*
D03*
X643750Y111750D02*
D03*
X505250Y56500D02*
D03*
X249000Y63250D02*
D03*
X221000Y190000D02*
D03*
X329000Y298000D02*
D03*
X561340Y363220D02*
D03*
X661670Y316230D02*
D03*
D57*
X565192Y272943D02*
D03*
Y184500D02*
D03*
X620500Y288750D02*
D03*
M02*
