G04*
G04 #@! TF.GenerationSoftware,Altium Limited,Altium Designer,20.0.12 (288)*
G04*
G04 Layer_Color=16711935*
%FSLAX44Y44*%
%MOMM*%
G71*
G01*
G75*
%ADD29C,1.0000*%
%ADD44C,2.0032*%
%ADD45R,2.0032X2.0032*%
%ADD46C,1.8032*%
%ADD47O,1.8032X2.2032*%
%ADD48R,1.8032X2.2032*%
D29*
X762000Y199390D02*
G03*
X769620Y306070I-49530J57150D01*
G01*
X730250Y416560D02*
G03*
X576580Y554990I-146050J-7620D01*
G01*
X769620Y306070D02*
G03*
X730250Y416560I-74930J35560D01*
G01*
X720090Y100330D02*
G03*
X762000Y199390I-28575J70485D01*
G01*
X647700Y6350D02*
G03*
X720090Y100330I-10795J83185D01*
G01*
X6350Y554990D02*
X576580D01*
X6350Y6350D02*
X647700D01*
X6350D02*
Y554990D01*
D44*
X417830Y505620D02*
D03*
X392430D02*
D03*
X367030D02*
D03*
X341630D02*
D03*
X316230D02*
D03*
X290830D02*
D03*
X265430D02*
D03*
X240030D02*
D03*
X214630D02*
D03*
X189230D02*
D03*
X163830D02*
D03*
X138430D02*
D03*
X113030D02*
D03*
X87630D02*
D03*
X62230D02*
D03*
X417830Y480220D02*
D03*
X392430D02*
D03*
X367030D02*
D03*
X341630D02*
D03*
X316230D02*
D03*
X290830D02*
D03*
X265430D02*
D03*
X240030D02*
D03*
X214630D02*
D03*
X189230D02*
D03*
X163830D02*
D03*
X138430D02*
D03*
X113030D02*
D03*
X87630D02*
D03*
D45*
X62230D02*
D03*
D46*
X59220Y376600D02*
D03*
Y91600D02*
D03*
X363220Y376600D02*
D03*
Y91600D02*
D03*
D47*
X249320Y379600D02*
D03*
X223920D02*
D03*
X198520D02*
D03*
D48*
X173120D02*
D03*
M02*
