M48
;Layer_Color=9474304
;FILE_FORMAT=4:4
METRIC,LZ
;TYPE=PLATED
T1F00S00C0.7112
T2F00S00C1.0000
T3F00S00C1.0200
T4F00S00C1.1000
;TYPE=NON_PLATED
T5F00S00C3.2000
%
T01
X00565192Y001845
Y00272943
X006205Y0028875
T02
X0010672Y00167052
X001265Y0021925
X0017Y0022425
X00177Y0024725
X001755Y001754
X0019873Y0016725
Y0019451
X00221Y0019
X00163998Y00150627
X00249Y0006325
X00329Y00298
X0036775Y0031925
X003915Y0036325
X003925Y0025825
X0028625Y00379308
X001005Y003965
X0005975Y0025025
X004105Y0023375
X00454Y0019075
X004625Y0013775
X0044025Y000995
X0050525Y000565
X005465Y001195
X005932Y0015525
X0061625Y0013605
X00639Y0015
X0064375Y0011175
X00627874Y00229
X0061025Y0023525
X0059725Y00301
X0066167Y0031623
X0056134Y0036322
X0049525Y0031575
X005055Y00302
X0045Y0038075
X004525Y0048975
X0037925Y0044825
X0033125Y004575
Y004265
X002795Y0042375
X002535Y00529
X0021463
X003025Y0053275
X0011303Y00531
X00162342Y0045575
X0007025Y00446
X0003175Y0045425
X0002575Y0041025
T03
X0041783Y0048022
Y0050562
X0039243
X0036703
X0034163
X0031623
X0029083
X0026543
X0024003
X0021463
X0018923
X0016383
X0013843
X0011303
X0008763
X0006223
Y0048022
X0008763
X0011303
X0013843
X0016383
X0018923
X0021463
X0024003
X0026543
X0029083
X0031623
X0034163
X0036703
X0039243
T04
X0017312Y003796
X0019852
X0022392
X0024932
T05
X0005922Y000916
Y003766
X0036322
Y000916
M30
